<svg width="297" height="98" viewBox="0 0 297 98" fill="none" xmlns="http://www.w3.org/2000/svg">
<path d="M37.1272 77.3218C36.4882 77.2684 35.7521 77.215 34.9187 77.1616C34.1964 77.1081 33.3491 77.068 32.3769 77.0413C31.4046 77.0146 30.3073 77.0013 29.085 77.0013C27.0293 77.0013 24.7097 77.0814 22.1262 77.2417C19.5705 77.3753 16.862 77.6424 14.0007 78.0432C14.973 74.0893 15.7091 70.2824 16.2092 66.6225C16.7092 62.9625 17.0842 59.7033 17.3342 56.8448C17.612 53.5054 17.7787 50.3664 17.8343 47.4278C17.8343 46.1722 17.8065 44.7963 17.7509 43.3003C17.6954 42.018 17.6259 40.5353 17.5426 38.8523C17.4592 37.1425 17.3481 35.2992 17.2092 33.3223C15.9036 34.5244 14.5979 35.8201 13.2923 37.2093C12.0144 38.5718 10.7782 40.001 9.58373 41.497C8.3892 42.9664 7.26413 44.4624 6.20851 45.9852C5.18066 47.5079 4.27783 49.004 3.5 50.4733L4.50006 19.8579C7.11134 20.1518 9.86152 20.3788 12.7506 20.5391C15.6675 20.6994 18.6399 20.7796 21.6678 20.7796C26.0015 20.7796 30.2934 20.6326 34.5437 20.3388C38.7939 20.0449 42.697 19.6175 46.2528 19.0565L47.7945 49.9924C45.7944 46.3325 43.572 42.8996 41.1274 39.6938C38.7106 36.4613 36.1271 33.7631 33.3769 31.5991C33.1547 33.4158 32.988 35.3259 32.8769 37.3295C32.7936 39.3064 32.7519 41.3368 32.7519 43.4205C32.7519 46.1187 32.8352 48.8971 33.0019 51.7556C33.1964 54.5874 33.4603 57.4459 33.7936 60.3311C34.1548 63.2163 34.6131 66.0882 35.1687 68.9467C35.7243 71.8052 36.3771 74.5969 37.1272 77.3218Z" fill="black"/>
<path d="M71.3354 41.1364C70.4742 41.1364 69.6964 41.3768 69.0019 41.8577C68.3074 42.3119 67.6824 42.9664 67.1268 43.8212C66.599 44.6494 66.1267 45.6512 65.71 46.8267C65.3211 48.0021 65.0016 49.2978 64.7516 50.7137C64.7516 52.9845 64.8072 55.282 64.9183 57.6062C65.0294 59.9304 65.21 62.2279 65.46 64.4986C65.71 66.7694 66.0295 68.9868 66.4184 71.1507C66.8351 73.3146 67.3351 75.3716 67.9185 77.3218C67.474 77.2951 66.9601 77.2551 66.3767 77.2016C65.8767 77.1749 65.2655 77.1482 64.5433 77.1215C63.8488 77.0948 63.0432 77.0814 62.1265 77.0814C60.4041 77.0814 58.404 77.1616 56.1261 77.3218C53.8759 77.4554 51.3758 77.7226 48.6256 78.1233C48.9589 76.6273 49.2506 74.7973 49.5006 72.6334C49.7507 70.4694 49.959 68.1185 50.1257 65.5806C50.2924 63.0427 50.4174 60.3979 50.5007 57.6463C50.6118 54.8679 50.6674 52.1296 50.6674 49.4314C50.6674 47.4278 50.6396 45.4642 50.584 43.5407C50.5285 41.6173 50.4451 39.8006 50.334 38.0909C50.2507 36.3811 50.1257 34.8049 49.959 33.3623C49.7923 31.9197 49.5979 30.6775 49.3756 29.6356C51.6258 30.0096 53.6676 30.2767 55.501 30.437C57.3623 30.5706 59.029 30.6374 60.5014 30.6374C61.4459 30.6374 62.2792 30.624 63.0015 30.5973C63.7238 30.5439 64.3488 30.4905 64.8766 30.437C65.46 30.3569 65.9878 30.2768 66.4601 30.1966C66.1267 31.5324 65.8767 33.015 65.71 34.6447C67.1546 32.9616 68.7241 31.7194 70.4187 30.9179C72.141 30.1165 73.7522 29.7157 75.2523 29.7157C77.7525 29.7157 79.8637 30.1565 81.586 31.0381C83.3084 31.893 84.6974 33.0284 85.753 34.4443C86.8086 35.8335 87.5725 37.423 88.0448 39.2129C88.5171 41.0028 88.7532 42.8194 88.7532 44.6628C88.7532 46.4527 88.4893 48.2025 87.9614 49.9123C87.4336 51.622 86.6697 53.1581 85.6696 54.5206C84.6696 55.8563 83.4334 56.9383 81.9611 57.7665C80.4887 58.5946 78.822 59.0087 76.9607 59.0087C75.3217 59.0087 73.9189 58.7416 72.7521 58.2073C71.6132 57.673 70.6687 56.9784 69.9186 56.1235C69.1686 55.2686 68.613 54.3336 68.2518 53.3184C67.9185 52.2765 67.7518 51.248 67.7518 50.2328C67.7518 49.1642 67.9046 48.1224 68.2102 47.1072C68.5435 46.092 69.0158 45.1704 69.6269 44.3422C69.8214 44.9299 70.0575 45.3841 70.3353 45.7047C70.6409 45.9985 70.9465 46.2122 71.252 46.3458C71.5854 46.5061 71.9465 46.5996 72.3354 46.6263C73.3633 46.6263 74.1272 46.3992 74.6273 45.9451C75.1551 45.4909 75.419 44.9566 75.419 44.3422C75.419 44.0483 75.3634 43.7144 75.2523 43.3404C75.1412 42.9664 74.9328 42.6191 74.6273 42.2985C74.3495 41.9779 73.9467 41.7108 73.4188 41.497C72.891 41.2566 72.1965 41.1364 71.3354 41.1364Z" fill="black"/>
<path d="M130.295 31.4389C129.99 32.5609 129.726 33.91 129.503 35.4862C129.309 37.0624 129.128 38.7588 128.962 40.5754C128.795 42.392 128.656 44.2888 128.545 46.2657C128.462 48.2426 128.378 50.1661 128.295 52.0361C128.128 56.4441 128.031 61.0925 128.003 65.9813C128.003 68.7063 127.823 71.3911 127.462 74.0359C127.128 76.6807 126.573 79.1785 125.795 81.5295C125.045 83.9071 124.059 86.0977 122.836 88.1013C121.642 90.1317 120.17 91.8682 118.419 93.3108C116.697 94.7801 114.683 95.9288 112.377 96.757C110.099 97.5852 107.516 97.9992 104.627 97.9992C101.932 97.9992 99.5988 97.7321 97.6264 97.1978C95.6541 96.6635 94.0151 95.9021 92.7094 94.9137C91.4316 93.9519 90.4732 92.7898 89.8342 91.4274C89.2231 90.0649 88.9175 88.5689 88.9175 86.9392C88.9175 85.3096 89.2092 83.8269 89.7926 82.4912C90.3759 81.1822 91.1399 80.0735 92.0844 79.1652C93.0289 78.2569 94.0984 77.5623 95.2929 77.0814C96.4874 76.5738 97.6959 76.32 98.9182 76.32C100.474 76.32 101.946 76.7475 103.335 77.6023C104.724 78.4572 105.78 79.8063 106.502 81.6497C106.335 81.5161 106.141 81.4226 105.919 81.3692C105.724 81.3425 105.516 81.3291 105.294 81.3291C104.988 81.3291 104.669 81.3959 104.335 81.5295C104.03 81.663 103.752 81.85 103.502 82.0905C103.252 82.3309 103.043 82.5981 102.877 82.8919C102.738 83.2125 102.668 83.5464 102.668 83.8937C102.668 84.2945 102.752 84.6284 102.918 84.8955C103.085 85.1894 103.28 85.4165 103.502 85.5768C103.752 85.7371 104.016 85.8439 104.294 85.8974C104.599 85.9775 104.877 86.0176 105.127 86.0176C105.516 86.0176 106.002 85.9374 106.585 85.7771C107.169 85.6169 107.766 85.2829 108.377 84.7753C109.016 84.2677 109.641 83.5598 110.252 82.6515C110.891 81.7432 111.447 80.5276 111.919 79.0049C112.419 77.5089 112.808 75.6789 113.086 73.515C113.391 71.351 113.53 68.7597 113.502 65.7409C112.78 67.611 112.016 69.1337 111.211 70.3092C110.433 71.4579 109.599 72.3529 108.71 72.994C107.849 73.6352 106.933 74.0626 105.96 74.2763C105.016 74.4901 104.002 74.5969 102.918 74.5969C101.557 74.5969 100.127 74.3698 98.6265 73.9157C97.1542 73.4348 95.793 72.6066 94.5429 71.4312C93.3206 70.229 92.3066 68.5994 91.501 66.5423C90.6954 64.4853 90.2926 61.8672 90.2926 58.6881C90.2926 58.2607 90.2926 57.9668 90.2926 57.8065C90.3204 57.6195 90.3343 57.486 90.3343 57.4058C90.3343 57.299 90.3482 57.1787 90.3759 57.0452C90.4037 56.9116 90.4176 56.6578 90.4176 56.2838C90.4176 55.8831 90.4176 55.322 90.4176 54.6007C90.4454 53.8794 90.4593 52.8643 90.4593 51.5552C90.4593 50.0325 90.4315 48.3094 90.3759 46.3859C90.3204 44.4624 90.1954 42.579 90.0009 40.7357C89.8342 38.8923 89.5842 37.2226 89.2509 35.7266C88.9175 34.2039 88.4869 33.0818 87.9591 32.3605C90.2093 32.7345 92.3205 32.9883 94.2929 33.1219C96.293 33.2555 98.1125 33.3223 99.7515 33.3223C100.835 33.3223 101.807 33.3089 102.668 33.2822C103.557 33.2288 104.321 33.1753 104.96 33.1219C105.682 33.0685 106.335 33.0017 106.919 32.9215C106.696 33.3757 106.446 34.2439 106.169 35.5262C105.919 36.8086 105.669 38.3447 105.419 40.1346C105.169 41.9245 104.96 43.888 104.794 46.0252C104.627 48.1357 104.544 50.2729 104.544 52.4368C104.544 54.0665 104.669 55.4556 104.919 56.6044C105.169 57.7531 105.502 58.7015 105.919 59.4495C106.363 60.1708 106.863 60.7051 107.419 61.0524C108.002 61.3997 108.627 61.5734 109.294 61.5734C110.349 61.5734 111.183 61.1593 111.794 60.3311C112.433 59.5029 112.975 58.4611 113.419 57.2055C113.364 55.5491 113.266 53.6123 113.127 51.395C112.989 49.1776 112.794 46.8668 112.544 44.4624C112.322 42.0581 112.016 39.6404 111.627 37.2093C111.266 34.7515 110.808 32.4674 110.252 30.3569C111.113 30.6508 112.141 30.9179 113.336 31.1583C114.364 31.3721 115.614 31.5591 117.086 31.7194C118.558 31.8529 120.295 31.9197 122.295 31.9197C124.656 31.9197 127.323 31.7594 130.295 31.4389Z" fill="black"/>
<path d="M162.459 77.3218C161.987 77.2951 161.431 77.2551 160.792 77.2016C160.237 77.1749 159.584 77.1482 158.834 77.1215C158.084 77.0948 157.223 77.0814 156.251 77.0814C154.445 77.0814 152.361 77.1616 150 77.3218C147.639 77.4554 145.083 77.7226 142.333 78.1233C142.861 77.1081 143.305 75.8392 143.666 74.3164C144.028 72.7669 144.319 71.124 144.541 69.3875C144.791 67.6243 144.972 65.8478 145.083 64.0578C145.222 62.2679 145.319 60.625 145.375 59.1289C145.43 57.6329 145.458 56.3639 145.458 55.3221C145.486 54.2802 145.5 53.6257 145.5 53.3585C145.444 49.8856 145.319 46.6397 145.125 43.6209C145.041 42.3386 144.93 41.0429 144.791 39.7339C144.68 38.4248 144.541 37.1959 144.375 36.0472C144.208 34.8717 144.014 33.8298 143.791 32.9215C143.597 31.9865 143.361 31.2519 143.083 30.7176C145.333 31.0916 147.417 31.3454 149.333 31.4789C151.25 31.6125 152.986 31.6793 154.542 31.6793C155.542 31.6793 156.431 31.6659 157.209 31.6392C158.015 31.5858 158.695 31.5324 159.251 31.4789C159.917 31.4255 160.501 31.3587 161.001 31.2786C160.501 33.6829 160.084 36.5815 159.751 39.9743C159.445 43.3671 159.292 47.0003 159.292 50.874C159.292 53.0914 159.348 55.3354 159.459 57.6062C159.57 59.877 159.751 62.1477 160.001 64.4185C160.251 66.6626 160.57 68.8799 160.959 71.0705C161.376 73.2345 161.876 75.3182 162.459 77.3218ZM143.333 20.0182C143.333 18.7893 143.569 17.6406 144.041 16.572C144.541 15.4766 145.208 14.5283 146.042 13.7268C146.903 12.8986 147.903 12.2575 149.042 11.8033C150.181 11.3225 151.389 11.082 152.667 11.082C153.945 11.082 155.139 11.3225 156.251 11.8033C157.389 12.2575 158.376 12.8986 159.209 13.7268C160.07 14.5283 160.737 15.4766 161.209 16.572C161.709 17.6406 161.959 18.7893 161.959 20.0182C161.959 21.2471 161.709 22.4092 161.209 23.5045C160.737 24.5998 160.07 25.5616 159.209 26.3897C158.376 27.1912 157.389 27.8323 156.251 28.3132C155.139 28.7674 153.945 28.9944 152.667 28.9944C151.389 28.9944 150.181 28.7674 149.042 28.3132C147.903 27.8323 146.903 27.1912 146.042 26.3897C145.208 25.5616 144.541 24.5998 144.041 23.5045C143.569 22.4092 143.333 21.2471 143.333 20.0182Z" fill="black"/>
<path d="M197.084 28.8341C196.862 30.0363 196.695 31.2118 196.584 32.3605C196.501 33.5093 196.459 34.6847 196.459 35.8869C196.459 37.0356 196.501 38.1977 196.584 39.3732C196.695 40.5219 196.862 41.684 197.084 42.8595C195.751 42.1916 194.237 41.6974 192.542 41.3768C190.875 41.0562 189.167 40.8025 187.417 40.6154V44.0617C187.417 47.0805 187.472 50.1394 187.584 53.2383C187.695 56.3105 187.875 59.3026 188.125 62.2145C188.375 65.0997 188.695 67.838 189.084 70.4294C189.5 73.0207 190 75.3182 190.584 77.3218C190.111 77.2951 189.556 77.2551 188.917 77.2016C188.361 77.1749 187.709 77.1482 186.958 77.1215C186.208 77.0948 185.347 77.0814 184.375 77.0814C182.569 77.0814 180.486 77.1616 178.125 77.3218C175.763 77.4554 173.208 77.7226 170.457 78.1233C171.402 72.9139 172.069 67.5041 172.458 61.8939C172.874 56.2571 173.083 50.7538 173.083 45.3841V40.6154C171.194 40.749 169.318 40.9627 167.457 41.2566C165.624 41.5238 163.888 41.8577 162.249 42.2584C162.36 41.9646 162.457 41.5772 162.54 41.0963C162.624 40.6155 162.679 40.1212 162.707 39.6136C162.762 39.1061 162.79 38.6118 162.79 38.131C162.818 37.6501 162.832 37.2494 162.832 36.9288C162.832 35.5663 162.776 34.2172 162.665 32.8815C162.554 31.5457 162.415 30.1966 162.249 28.8341C163.582 29.3684 165.165 29.8092 166.999 30.1565C168.832 30.4771 170.694 30.7176 172.583 30.8778C172.416 28.5536 172.221 26.4031 171.999 24.4262C171.777 22.4493 171.513 20.6594 171.207 19.0565C173.458 19.4305 175.541 19.6843 177.458 19.8178C179.375 19.9514 181.111 20.0182 182.667 20.0182C183.667 20.0182 184.556 20.0048 185.333 19.9781C186.139 19.9247 186.82 19.8713 187.375 19.8178C188.042 19.7644 188.625 19.6976 189.125 19.6175C188.82 20.8998 188.556 22.5027 188.334 24.4262C188.139 26.3229 187.945 28.4468 187.75 30.7977C189.584 30.6107 191.306 30.3569 192.917 30.0363C194.556 29.7157 195.945 29.315 197.084 28.8341Z" fill="black"/>
<path d="M247.874 54.0798C247.874 55.6293 247.749 57.339 247.499 59.2091C247.249 61.0524 246.833 62.9225 246.249 64.8192C245.666 66.6893 244.874 68.5193 243.874 70.3092C242.874 72.0723 241.624 73.6352 240.124 74.9976C238.652 76.3601 236.888 77.4554 234.832 78.2836C232.776 79.1117 230.387 79.5258 227.665 79.5258C224.942 79.5258 222.553 79.1385 220.498 78.3637C218.47 77.589 216.72 76.5605 215.247 75.2781C213.803 73.9691 212.608 72.4731 211.664 70.79C210.719 69.0803 209.969 67.2904 209.414 65.4203C208.858 63.5503 208.469 61.6669 208.247 59.7701C208.052 57.8466 207.955 56.03 207.955 54.3202C207.955 51.3014 208.372 48.3494 209.205 45.4642C210.039 42.5523 211.303 39.9609 212.997 37.6902C214.72 35.4194 216.859 33.5894 219.414 32.2002C221.998 30.811 225.026 30.1165 228.498 30.1165C230.832 30.1165 232.929 30.4638 234.79 31.1583C236.652 31.8262 238.304 32.7479 239.749 33.9233C241.193 35.0988 242.416 36.4746 243.416 38.0508C244.444 39.627 245.291 41.2967 245.958 43.0599C246.624 44.8231 247.111 46.653 247.416 48.5498C247.722 50.4466 247.874 52.2899 247.874 54.0798ZM233.374 55.4022C233.374 54.7878 233.346 54.0264 233.29 53.1181C233.262 52.183 233.179 51.2079 233.04 50.1928C232.901 49.1776 232.707 48.1624 232.457 47.1473C232.235 46.1321 231.929 45.2238 231.54 44.4223C231.151 43.6209 230.665 42.9664 230.082 42.4588C229.526 41.9512 228.859 41.6974 228.082 41.6974C227.331 41.6974 226.679 41.9378 226.123 42.4187C225.567 42.8996 225.081 43.5274 224.665 44.3021C224.276 45.0769 223.942 45.9585 223.665 46.9469C223.415 47.9086 223.206 48.8837 223.04 49.8722C222.901 50.8339 222.79 51.769 222.706 52.6773C222.651 53.5589 222.623 54.3069 222.623 54.9213C222.623 55.8029 222.692 56.8715 222.831 58.1271C222.97 59.3827 223.234 60.5849 223.623 61.7336C224.012 62.8824 224.54 63.8708 225.206 64.699C225.901 65.5005 226.804 65.9012 227.915 65.9012C228.97 65.9012 229.846 65.5272 230.54 64.7792C231.262 64.0311 231.832 63.1228 232.248 62.0542C232.665 60.9589 232.957 59.8102 233.123 58.608C233.29 57.4058 233.374 56.3372 233.374 55.4022Z" fill="black"/>
<path d="M292.5 78.2836C291.639 78.15 290.694 78.0565 289.666 78.0031C288.639 77.9764 287.569 77.963 286.458 77.963C285.125 77.963 283.763 77.9897 282.374 78.0432C281.013 78.1233 279.68 78.2168 278.374 78.3237C277.068 78.4305 275.832 78.5507 274.665 78.6843C273.499 78.8179 272.485 78.9381 271.624 79.045C272.818 75.1713 273.735 71.0305 274.374 66.6225C275.041 62.2145 275.374 57.3257 275.374 51.956C275.374 51.5552 275.36 51.0209 275.332 50.3531C275.332 49.6852 275.304 48.9639 275.249 48.1892C275.193 47.4144 275.096 46.6397 274.957 45.8649C274.846 45.0635 274.665 44.3422 274.415 43.701C274.193 43.0599 273.902 42.5389 273.54 42.1382C273.179 41.7375 272.735 41.5371 272.207 41.5371C271.429 41.5371 270.665 41.8043 269.915 42.3386C269.193 42.8729 268.54 43.5808 267.957 44.4624C267.401 45.344 266.943 46.3592 266.582 47.5079C266.248 48.6567 266.082 49.8455 266.082 51.0744C266.082 53.2917 266.137 55.5491 266.248 57.8466C266.359 60.1174 266.54 62.3748 266.79 64.6189C267.04 66.8629 267.359 69.0669 267.748 71.2308C268.137 73.368 268.623 75.3984 269.207 77.3218C268.735 77.2951 268.179 77.2551 267.54 77.2016C266.984 77.1749 266.332 77.1482 265.582 77.1215C264.832 77.0948 263.97 77.0814 262.998 77.0814C261.192 77.0814 259.109 77.1616 256.748 77.3218C254.386 77.4554 251.831 77.7226 249.081 78.1233C249.414 76.6273 249.706 74.7973 249.956 72.6334C250.206 70.4694 250.414 68.1185 250.581 65.5806C250.747 63.0427 250.872 60.3979 250.956 57.6463C251.067 54.8679 251.122 52.1296 251.122 49.4314C251.122 47.4278 251.095 45.4642 251.039 43.5407C250.983 41.6173 250.9 39.8006 250.789 38.0909C250.706 36.3811 250.581 34.8049 250.414 33.3623C250.247 31.9197 250.053 30.6775 249.831 29.6356C252.081 30.0096 254.164 30.2767 256.081 30.437C257.998 30.5706 259.734 30.6374 261.29 30.6374C262.29 30.6374 263.179 30.624 263.956 30.5973C264.762 30.5439 265.443 30.4905 265.998 30.437C266.665 30.3569 267.248 30.2768 267.748 30.1966C267.582 31.0248 267.415 31.9064 267.248 32.8414C267.109 33.7764 266.971 34.7916 266.832 35.8869C267.748 34.7649 268.721 33.7898 269.749 32.9616C270.776 32.1067 271.804 31.3988 272.832 30.8378C273.888 30.2767 274.929 29.8627 275.957 29.5955C276.985 29.3017 277.957 29.1547 278.874 29.1547C280.874 29.1547 282.597 29.5554 284.041 30.3569C285.513 31.1316 286.722 32.3605 287.666 34.0436C288.639 35.7266 289.361 37.8772 289.833 40.4952C290.305 43.1133 290.542 46.2523 290.542 49.9123C290.542 52.4235 290.542 54.9748 290.542 57.5661C290.569 60.1575 290.639 62.6954 290.75 65.1799C290.861 67.6644 291.055 70.0287 291.333 72.2727C291.611 74.4901 292 76.4937 292.5 78.2836Z" fill="black"/>
<mask id="path-2-outside-1_2575_24018" maskUnits="userSpaceOnUse" x="-0.5" y="0" width="298" height="94" fill="black">
<rect fill="white" x="-0.5" width="298" height="94"/>
<path d="M37.1272 70.2398C36.4882 70.1864 35.7521 70.133 34.9187 70.0795C34.1964 70.0261 33.3491 69.986 32.3769 69.9593C31.4046 69.9326 30.3073 69.9192 29.085 69.9192C27.0293 69.9192 24.7097 69.9994 22.1262 70.1597C19.5705 70.2932 16.862 70.5604 14.0007 70.9611C14.973 67.0073 15.7091 63.2004 16.2092 59.5405C16.7092 55.8805 17.0842 52.6213 17.3342 49.7628C17.612 46.4234 17.7787 43.2844 17.8343 40.3457C17.8343 39.0901 17.8065 37.7143 17.7509 36.2183C17.6954 34.936 17.6259 33.4533 17.5426 31.7702C17.4592 30.0605 17.3481 28.2171 17.2092 26.2402C15.9036 27.4424 14.5979 28.7381 13.2923 30.1273C12.0144 31.4897 10.7782 32.919 9.58373 34.415C8.3892 35.8843 7.26413 37.3804 6.20851 38.9031C5.18066 40.4259 4.27783 41.9219 3.5 43.3913L4.50006 12.7759C7.11134 13.0697 9.86152 13.2968 12.7506 13.4571C15.6675 13.6174 18.6399 13.6975 21.6678 13.6975C26.0015 13.6975 30.2934 13.5506 34.5437 13.2567C38.7939 12.9629 42.697 12.5354 46.2528 11.9744L47.7945 42.9104C45.7944 39.2504 43.572 35.8176 41.1274 32.6118C38.7106 29.3792 36.1271 26.681 33.3769 24.5171C33.1547 26.3337 32.988 28.2439 32.8769 30.2475C32.7936 32.2244 32.7519 34.2547 32.7519 36.3385C32.7519 39.0367 32.8352 41.8151 33.0019 44.6736C33.1964 47.5054 33.4603 50.3639 33.7936 53.2491C34.1548 56.1343 34.6131 59.0062 35.1687 61.8647C35.7243 64.7232 36.3771 67.5149 37.1272 70.2398Z"/>
<path d="M71.3354 34.0544C70.4742 34.0544 69.6964 34.2948 69.0019 34.7757C68.3074 35.2298 67.6824 35.8843 67.1268 36.7392C66.599 37.5674 66.1267 38.5692 65.71 39.7447C65.3211 40.9201 65.0016 42.2158 64.7516 43.6317C64.7516 45.9025 64.8072 48.1999 64.9183 50.5242C65.0294 52.8484 65.21 55.1458 65.46 57.4166C65.71 59.6874 66.0295 61.9047 66.4184 64.0686C66.8351 66.2326 67.3351 68.2896 67.9185 70.2398C67.474 70.2131 66.9601 70.173 66.3767 70.1196C65.8767 70.0929 65.2655 70.0662 64.5433 70.0395C63.8488 70.0127 63.0432 69.9994 62.1265 69.9994C60.4041 69.9994 58.404 70.0795 56.1261 70.2398C53.8759 70.3734 51.3758 70.6405 48.6256 71.0413C48.9589 69.5452 49.2506 67.7152 49.5006 65.5513C49.7507 63.3874 49.959 61.0365 50.1257 58.4986C50.2924 55.9607 50.4174 53.3159 50.5007 50.5642C50.6118 47.7859 50.6674 45.0476 50.6674 42.3494C50.6674 40.3457 50.6396 38.3822 50.584 36.4587C50.5285 34.5352 50.4451 32.7186 50.334 31.0089C50.2507 29.2991 50.1257 27.7229 49.959 26.2803C49.7923 24.8377 49.5979 23.5954 49.3756 22.5536C51.6258 22.9276 53.6676 23.1947 55.501 23.355C57.3623 23.4886 59.029 23.5554 60.5014 23.5554C61.4459 23.5554 62.2792 23.542 63.0015 23.5153C63.7238 23.4619 64.3488 23.4084 64.8766 23.355C65.46 23.2749 65.9878 23.1947 66.4601 23.1146C66.1267 24.4503 65.8767 25.933 65.71 27.5626C67.1546 25.8796 68.7241 24.6373 70.4187 23.8359C72.141 23.0344 73.7522 22.6337 75.2523 22.6337C77.7525 22.6337 79.8637 23.0745 81.586 23.9561C83.3084 24.811 84.6974 25.9464 85.753 27.3623C86.8086 28.7514 87.5725 30.341 88.0448 32.1309C88.5171 33.9208 88.7532 35.7374 88.7532 37.5807C88.7532 39.3706 88.4893 41.1205 87.9614 42.8302C87.4336 44.54 86.6697 46.0761 85.6696 47.4386C84.6696 48.7743 83.4334 49.8563 81.9611 50.6844C80.4887 51.5126 78.822 51.9267 76.9607 51.9267C75.3218 51.9267 73.9189 51.6595 72.7521 51.1252C71.6132 50.5909 70.6687 49.8964 69.9186 49.0415C69.1686 48.1866 68.613 47.2516 68.2519 46.2364C67.9185 45.1945 67.7518 44.166 67.7518 43.1508C67.7518 42.0822 67.9046 41.0403 68.2102 40.0252C68.5435 39.01 69.0158 38.0883 69.6269 37.2602C69.8214 37.8479 70.0575 38.302 70.3353 38.6226C70.6409 38.9165 70.9465 39.1302 71.252 39.2638C71.5854 39.4241 71.9465 39.5176 72.3354 39.5443C73.3633 39.5443 74.1272 39.3172 74.6273 38.8631C75.1551 38.4089 75.419 37.8746 75.419 37.2602C75.419 36.9663 75.3634 36.6324 75.2523 36.2584C75.1412 35.8843 74.9328 35.537 74.6273 35.2165C74.3495 34.8959 73.9467 34.6287 73.4188 34.415C72.891 34.1746 72.1965 34.0544 71.3354 34.0544Z"/>
<path d="M130.295 24.3568C129.99 25.4789 129.726 26.828 129.503 28.4041C129.309 29.9803 129.128 31.6767 128.962 33.4933C128.795 35.31 128.656 37.2067 128.545 39.1836C128.462 41.1605 128.378 43.084 128.295 44.9541C128.128 49.362 128.031 54.0105 128.003 58.8993C128.003 61.6242 127.823 64.3091 127.462 66.9539C127.128 69.5987 126.573 72.0965 125.795 74.4474C125.045 76.8251 124.059 79.0157 122.836 81.0193C121.642 83.0497 120.17 84.7861 118.419 86.2287C116.697 87.6981 114.683 88.8468 112.377 89.675C110.099 90.5031 107.516 90.9172 104.627 90.9172C101.932 90.9172 99.5988 90.6501 97.6264 90.1158C95.6541 89.5815 94.0151 88.8201 92.7094 87.8316C91.4316 86.8699 90.4732 85.7078 89.8342 84.3453C89.2231 82.9829 88.9175 81.4868 88.9175 79.8572C88.9175 78.2276 89.2092 76.7449 89.7926 75.4092C90.3759 74.1001 91.1399 72.9915 92.0844 72.0832C93.0289 71.1748 94.0984 70.4803 95.2929 69.9994C96.4874 69.4918 97.6959 69.238 98.9182 69.238C100.474 69.238 101.946 69.6654 103.335 70.5203C104.724 71.3752 105.78 72.7243 106.502 74.5676C106.335 74.4341 106.141 74.3406 105.919 74.2871C105.724 74.2604 105.516 74.2471 105.294 74.2471C104.988 74.2471 104.669 74.3139 104.335 74.4474C104.03 74.581 103.752 74.768 103.502 75.0084C103.252 75.2489 103.043 75.516 102.877 75.8099C102.738 76.1305 102.668 76.4644 102.668 76.8117C102.668 77.2124 102.752 77.5464 102.918 77.8135C103.085 78.1074 103.28 78.3345 103.502 78.4948C103.752 78.655 104.016 78.7619 104.294 78.8153C104.599 78.8955 104.877 78.9355 105.127 78.9355C105.516 78.9355 106.002 78.8554 106.585 78.6951C107.169 78.5348 107.766 78.2009 108.377 77.6933C109.016 77.1857 109.641 76.4778 110.252 75.5695C110.891 74.6611 111.447 73.4456 111.919 71.9229C112.419 70.4268 112.808 68.5968 113.086 66.4329C113.391 64.269 113.53 61.6777 113.502 58.6589C112.78 60.5289 112.016 62.0517 111.211 63.2271C110.433 64.3759 109.599 65.2708 108.71 65.912C107.849 66.5532 106.933 66.9806 105.96 67.1943C105.016 67.408 104.002 67.5149 102.918 67.5149C101.557 67.5149 100.127 67.2878 98.6265 66.8337C97.1542 66.3528 95.793 65.5246 94.5429 64.3492C93.3206 63.147 92.3066 61.5174 91.501 59.4603C90.6954 57.4033 90.2926 54.7852 90.2926 51.6061C90.2926 51.1787 90.2926 50.8848 90.2926 50.7245C90.3204 50.5375 90.3343 50.4039 90.3343 50.3238C90.3343 50.2169 90.3482 50.0967 90.3759 49.9631C90.4037 49.8296 90.4176 49.5758 90.4176 49.2018C90.4176 48.801 90.4176 48.24 90.4176 47.5187C90.4454 46.7974 90.4593 45.7822 90.4593 44.4732C90.4593 42.9505 90.4315 41.2273 90.3759 39.3039C90.3204 37.3804 90.1954 35.497 90.0009 33.6536C89.8342 31.8103 89.5842 30.1406 89.2509 28.6446C88.9175 27.1218 88.4869 25.9998 87.9591 25.2785C90.2093 25.6525 92.3205 25.9063 94.2929 26.0399C96.293 26.1734 98.1125 26.2402 99.7515 26.2402C100.835 26.2402 101.807 26.2269 102.668 26.2002C103.557 26.1467 104.321 26.0933 104.96 26.0399C105.682 25.9864 106.335 25.9196 106.919 25.8395C106.696 26.2937 106.446 27.1619 106.169 28.4442C105.919 29.7265 105.669 31.2626 105.419 33.0526C105.169 34.8425 104.96 36.806 104.794 38.9432C104.627 41.0537 104.544 43.1909 104.544 45.3548C104.544 46.9844 104.669 48.3736 104.919 49.5223C105.169 50.6711 105.502 51.6195 105.919 52.3675C106.363 53.0888 106.863 53.6231 107.419 53.9704C108.002 54.3177 108.627 54.4913 109.294 54.4913C110.349 54.4913 111.183 54.0772 111.794 53.2491C112.433 52.4209 112.975 51.379 113.419 50.1234C113.364 48.4671 113.266 46.5303 113.127 44.3129C112.989 42.0956 112.794 39.7847 112.544 37.3804C112.322 34.976 112.016 32.5583 111.627 30.1273C111.266 27.6695 110.808 25.3853 110.252 23.2749C111.113 23.5687 112.141 23.8359 113.336 24.0763C114.364 24.29 115.614 24.477 117.086 24.6373C118.558 24.7709 120.295 24.8377 122.295 24.8377C124.656 24.8377 127.323 24.6774 130.295 24.3568Z"/>
<path d="M162.459 70.2398C161.987 70.2131 161.431 70.173 160.792 70.1196C160.237 70.0929 159.584 70.0662 158.834 70.0395C158.084 70.0127 157.223 69.9994 156.251 69.9994C154.445 69.9994 152.361 70.0795 150 70.2398C147.639 70.3734 145.083 70.6405 142.333 71.0413C142.861 70.0261 143.305 68.7571 143.666 67.2344C144.028 65.6849 144.319 64.0419 144.541 62.3055C144.791 60.5423 144.972 58.7657 145.083 56.9758C145.222 55.1859 145.319 53.5429 145.375 52.0469C145.43 50.5509 145.458 49.2819 145.458 48.24C145.486 47.1981 145.5 46.5436 145.5 46.2765C145.444 42.8035 145.319 39.5577 145.125 36.5389C145.041 35.2565 144.93 33.9609 144.791 32.6518C144.68 31.3428 144.541 30.1139 144.375 28.9652C144.208 27.7897 144.014 26.7478 143.791 25.8395C143.597 24.9045 143.361 24.1698 143.083 23.6355C145.333 24.0095 147.417 24.2633 149.333 24.3969C151.25 24.5305 152.986 24.5973 154.542 24.5973C155.542 24.5973 156.431 24.5839 157.209 24.5572C158.015 24.5038 158.695 24.4503 159.251 24.3969C159.917 24.3435 160.501 24.2767 161.001 24.1965C160.501 26.6009 160.084 29.4995 159.751 32.8923C159.445 36.2851 159.292 39.9183 159.292 43.792C159.292 46.0093 159.348 48.2534 159.459 50.5242C159.57 52.7949 159.751 55.0657 160.001 57.3365C160.251 59.5805 160.57 61.7979 160.959 63.9885C161.376 66.1524 161.876 68.2362 162.459 70.2398ZM143.333 12.9362C143.333 11.7073 143.569 10.5585 144.041 9.48993C144.541 8.39462 145.208 7.44623 146.042 6.64478C146.903 5.81662 147.903 5.17546 149.042 4.7213C150.181 4.24043 151.389 4 152.667 4C153.945 4 155.139 4.24043 156.251 4.7213C157.39 5.17546 158.376 5.81662 159.209 6.64478C160.07 7.44623 160.737 8.39462 161.209 9.48993C161.709 10.5585 161.959 11.7073 161.959 12.9362C161.959 14.1651 161.709 15.3272 161.209 16.4225C160.737 17.5178 160.07 18.4795 159.209 19.3077C158.376 20.1091 157.39 20.7503 156.251 21.2312C155.139 21.6853 153.945 21.9124 152.667 21.9124C151.389 21.9124 150.181 21.6853 149.042 21.2312C147.903 20.7503 146.903 20.1091 146.042 19.3077C145.208 18.4795 144.541 17.5178 144.041 16.4225C143.569 15.3272 143.333 14.1651 143.333 12.9362Z"/>
<path d="M197.084 21.7521C196.862 22.9543 196.695 24.1297 196.584 25.2785C196.501 26.4272 196.459 27.6027 196.459 28.8049C196.459 29.9536 196.501 31.1157 196.584 32.2912C196.695 33.4399 196.862 34.602 197.084 35.7775C195.751 35.1096 194.237 34.6154 192.542 34.2948C190.875 33.9742 189.167 33.7204 187.417 33.5334V36.9797C187.417 39.9984 187.472 43.0573 187.584 46.1563C187.695 49.2285 187.875 52.2206 188.125 55.1325C188.375 58.0177 188.695 60.756 189.084 63.3473C189.5 65.9387 190 68.2362 190.584 70.2398C190.111 70.2131 189.556 70.173 188.917 70.1196C188.361 70.0929 187.709 70.0662 186.959 70.0395C186.208 70.0127 185.347 69.9994 184.375 69.9994C182.569 69.9994 180.486 70.0795 178.125 70.2398C175.763 70.3734 173.208 70.6405 170.457 71.0413C171.402 65.8318 172.069 60.4221 172.458 54.8119C172.874 49.175 173.083 43.6718 173.083 38.302V33.5334C171.194 33.667 169.318 33.8807 167.457 34.1746C165.624 34.4417 163.888 34.7757 162.249 35.1764C162.36 34.8825 162.457 34.4952 162.54 34.0143C162.624 33.5334 162.679 33.0392 162.707 32.5316C162.762 32.024 162.79 31.5298 162.79 31.0489C162.818 30.5681 162.832 30.1673 162.832 29.8468C162.832 28.4843 162.776 27.1352 162.665 25.7994C162.554 24.4637 162.415 23.1146 162.249 21.7521C163.582 22.2864 165.165 22.7272 166.999 23.0745C168.832 23.3951 170.694 23.6355 172.583 23.7958C172.416 21.4716 172.221 19.321 171.999 17.3441C171.777 15.3672 171.513 13.5773 171.207 11.9744C173.458 12.3484 175.541 12.6022 177.458 12.7358C179.375 12.8694 181.111 12.9362 182.667 12.9362C183.667 12.9362 184.556 12.9228 185.333 12.8961C186.139 12.8427 186.82 12.7892 187.375 12.7358C188.042 12.6824 188.625 12.6156 189.125 12.5354C188.82 13.8178 188.556 15.4207 188.334 17.3441C188.139 19.2409 187.945 21.3647 187.75 23.7157C189.584 23.5287 191.306 23.2749 192.917 22.9543C194.556 22.6337 195.945 22.233 197.084 21.7521Z"/>
<path d="M247.874 46.9978C247.874 48.5472 247.749 50.257 247.499 52.1271C247.249 53.9704 246.833 55.8404 246.249 57.7372C245.666 59.6072 244.874 61.4372 243.874 63.2271C242.874 64.9903 241.624 66.5532 240.124 67.9156C238.652 69.2781 236.888 70.3734 234.832 71.2016C232.776 72.0297 230.387 72.4438 227.665 72.4438C224.942 72.4438 222.553 72.0564 220.498 71.2817C218.47 70.507 216.72 69.4784 215.247 68.1961C213.803 66.8871 212.608 65.391 211.664 63.708C210.719 61.9982 209.969 60.2083 209.414 58.3383C208.858 56.4682 208.469 54.5848 208.247 52.6881C208.052 50.7646 207.955 48.948 207.955 47.2382C207.955 44.2194 208.372 41.2674 209.205 38.3822C210.039 35.4703 211.303 32.8789 212.997 30.6081C214.72 28.3374 216.859 26.5074 219.414 25.1182C221.998 23.729 225.026 23.0344 228.498 23.0344C230.832 23.0344 232.929 23.3817 234.79 24.0763C236.652 24.7442 238.304 25.6659 239.749 26.8413C241.193 28.0168 242.416 29.3926 243.416 30.9688C244.444 32.545 245.291 34.2147 245.958 35.9778C246.624 37.741 247.111 39.571 247.416 41.4678C247.722 43.3645 247.874 45.2079 247.874 46.9978ZM233.374 48.3202C233.374 47.7057 233.346 46.9443 233.29 46.036C233.262 45.101 233.179 44.1259 233.04 43.1107C232.901 42.0956 232.707 41.0804 232.457 40.0652C232.235 39.0501 231.929 38.1418 231.54 37.3403C231.151 36.5389 230.665 35.8843 230.082 35.3768C229.526 34.8692 228.859 34.6154 228.082 34.6154C227.331 34.6154 226.679 34.8558 226.123 35.3367C225.567 35.8176 225.081 36.4454 224.665 37.2201C224.276 37.9948 223.942 38.8764 223.665 39.8649C223.415 40.8266 223.206 41.8017 223.04 42.7902C222.901 43.7519 222.789 44.6869 222.706 45.5952C222.651 46.4768 222.623 47.2249 222.623 47.8393C222.623 48.7209 222.692 49.7895 222.831 51.0451C222.97 52.3007 223.234 53.5029 223.623 54.6516C224.012 55.8004 224.54 56.7888 225.206 57.617C225.901 58.4184 226.804 58.8192 227.915 58.8192C228.97 58.8192 229.846 58.4451 230.54 57.6971C231.262 56.9491 231.832 56.0408 232.248 54.9722C232.665 53.8769 232.957 52.7281 233.124 51.526C233.29 50.3238 233.374 49.2552 233.374 48.3202Z"/>
<path d="M292.5 71.2016C291.639 71.068 290.694 70.9745 289.667 70.9211C288.639 70.8943 287.569 70.881 286.458 70.881C285.125 70.881 283.763 70.9077 282.374 70.9611C281.013 71.0413 279.68 71.1348 278.374 71.2416C277.068 71.3485 275.832 71.4687 274.665 71.6023C273.499 71.7359 272.485 71.8561 271.624 71.9629C272.818 68.0893 273.735 63.9484 274.374 59.5405C275.041 55.1325 275.374 50.2436 275.374 44.8739C275.374 44.4732 275.36 43.9389 275.332 43.271C275.332 42.6032 275.304 41.8819 275.249 41.1071C275.193 40.3324 275.096 39.5577 274.957 38.7829C274.846 37.9815 274.666 37.2602 274.415 36.619C274.193 35.9778 273.902 35.4569 273.54 35.0562C273.179 34.6554 272.735 34.4551 272.207 34.4551C271.429 34.4551 270.665 34.7222 269.915 35.2565C269.193 35.7908 268.54 36.4988 267.957 37.3804C267.401 38.262 266.943 39.2771 266.582 40.4259C266.248 41.5746 266.082 42.7635 266.082 43.9923C266.082 46.2097 266.137 48.4671 266.248 50.7646C266.359 53.0354 266.54 55.2928 266.79 57.5368C267.04 59.7809 267.359 61.9849 267.748 64.1488C268.137 66.286 268.623 68.3163 269.207 70.2398C268.735 70.2131 268.179 70.173 267.54 70.1196C266.984 70.0929 266.332 70.0662 265.582 70.0395C264.832 70.0127 263.97 69.9994 262.998 69.9994C261.192 69.9994 259.109 70.0795 256.748 70.2398C254.386 70.3734 251.831 70.6405 249.081 71.0413C249.414 69.5452 249.706 67.7152 249.956 65.5513C250.206 63.3874 250.414 61.0365 250.581 58.4986C250.747 55.9607 250.872 53.3159 250.956 50.5642C251.067 47.7859 251.122 45.0476 251.122 42.3494C251.122 40.3457 251.095 38.3822 251.039 36.4587C250.983 34.5352 250.9 32.7186 250.789 31.0089C250.706 29.2991 250.581 27.7229 250.414 26.2803C250.247 24.8377 250.053 23.5954 249.831 22.5536C252.081 22.9276 254.164 23.1947 256.081 23.355C257.998 23.4886 259.734 23.5554 261.29 23.5554C262.29 23.5554 263.179 23.542 263.956 23.5153C264.762 23.4619 265.443 23.4084 265.998 23.355C266.665 23.2749 267.248 23.1947 267.748 23.1146C267.582 23.9427 267.415 24.8243 267.248 25.7594C267.109 26.6944 266.971 27.7096 266.832 28.8049C267.748 27.6828 268.721 26.7077 269.749 25.8796C270.776 25.0247 271.804 24.3167 272.832 23.7557C273.888 23.1947 274.929 22.7806 275.957 22.5135C276.985 22.2196 277.957 22.0727 278.874 22.0727C280.874 22.0727 282.597 22.4734 284.041 23.2749C285.513 24.0496 286.722 25.2785 287.666 26.9615C288.639 28.6446 289.361 30.7951 289.833 33.4132C290.305 36.0313 290.542 39.1703 290.542 42.8302C290.542 45.3414 290.542 47.8927 290.542 50.4841C290.569 53.0754 290.639 55.6134 290.75 58.0978C290.861 60.5823 291.055 62.9466 291.333 65.1907C291.611 67.408 292 69.4117 292.5 71.2016Z"/>
</mask>
<path d="M37.1272 70.2398C36.4882 70.1864 35.7521 70.133 34.9187 70.0795C34.1964 70.0261 33.3491 69.986 32.3769 69.9593C31.4046 69.9326 30.3073 69.9192 29.085 69.9192C27.0293 69.9192 24.7097 69.9994 22.1262 70.1597C19.5705 70.2932 16.862 70.5604 14.0007 70.9611C14.973 67.0073 15.7091 63.2004 16.2092 59.5405C16.7092 55.8805 17.0842 52.6213 17.3342 49.7628C17.612 46.4234 17.7787 43.2844 17.8343 40.3457C17.8343 39.0901 17.8065 37.7143 17.7509 36.2183C17.6954 34.936 17.6259 33.4533 17.5426 31.7702C17.4592 30.0605 17.3481 28.2171 17.2092 26.2402C15.9036 27.4424 14.5979 28.7381 13.2923 30.1273C12.0144 31.4897 10.7782 32.919 9.58373 34.415C8.3892 35.8843 7.26413 37.3804 6.20851 38.9031C5.18066 40.4259 4.27783 41.9219 3.5 43.3913L4.50006 12.7759C7.11134 13.0697 9.86152 13.2968 12.7506 13.4571C15.6675 13.6174 18.6399 13.6975 21.6678 13.6975C26.0015 13.6975 30.2934 13.5506 34.5437 13.2567C38.7939 12.9629 42.697 12.5354 46.2528 11.9744L47.7945 42.9104C45.7944 39.2504 43.572 35.8176 41.1274 32.6118C38.7106 29.3792 36.1271 26.681 33.3769 24.5171C33.1547 26.3337 32.988 28.2439 32.8769 30.2475C32.7936 32.2244 32.7519 34.2547 32.7519 36.3385C32.7519 39.0367 32.8352 41.8151 33.0019 44.6736C33.1964 47.5054 33.4603 50.3639 33.7936 53.2491C34.1548 56.1343 34.6131 59.0062 35.1687 61.8647C35.7243 64.7232 36.3771 67.5149 37.1272 70.2398Z" fill="white"/>
<path d="M71.3354 34.0544C70.4742 34.0544 69.6964 34.2948 69.0019 34.7757C68.3074 35.2298 67.6824 35.8843 67.1268 36.7392C66.599 37.5674 66.1267 38.5692 65.71 39.7447C65.3211 40.9201 65.0016 42.2158 64.7516 43.6317C64.7516 45.9025 64.8072 48.1999 64.9183 50.5242C65.0294 52.8484 65.21 55.1458 65.46 57.4166C65.71 59.6874 66.0295 61.9047 66.4184 64.0686C66.8351 66.2326 67.3351 68.2896 67.9185 70.2398C67.474 70.2131 66.9601 70.173 66.3767 70.1196C65.8767 70.0929 65.2655 70.0662 64.5433 70.0395C63.8488 70.0127 63.0432 69.9994 62.1265 69.9994C60.4041 69.9994 58.404 70.0795 56.1261 70.2398C53.8759 70.3734 51.3758 70.6405 48.6256 71.0413C48.9589 69.5452 49.2506 67.7152 49.5006 65.5513C49.7507 63.3874 49.959 61.0365 50.1257 58.4986C50.2924 55.9607 50.4174 53.3159 50.5007 50.5642C50.6118 47.7859 50.6674 45.0476 50.6674 42.3494C50.6674 40.3457 50.6396 38.3822 50.584 36.4587C50.5285 34.5352 50.4451 32.7186 50.334 31.0089C50.2507 29.2991 50.1257 27.7229 49.959 26.2803C49.7923 24.8377 49.5979 23.5954 49.3756 22.5536C51.6258 22.9276 53.6676 23.1947 55.501 23.355C57.3623 23.4886 59.029 23.5554 60.5014 23.5554C61.4459 23.5554 62.2792 23.542 63.0015 23.5153C63.7238 23.4619 64.3488 23.4084 64.8766 23.355C65.46 23.2749 65.9878 23.1947 66.4601 23.1146C66.1267 24.4503 65.8767 25.933 65.71 27.5626C67.1546 25.8796 68.7241 24.6373 70.4187 23.8359C72.141 23.0344 73.7522 22.6337 75.2523 22.6337C77.7525 22.6337 79.8637 23.0745 81.586 23.9561C83.3084 24.811 84.6974 25.9464 85.753 27.3623C86.8086 28.7514 87.5725 30.341 88.0448 32.1309C88.5171 33.9208 88.7532 35.7374 88.7532 37.5807C88.7532 39.3706 88.4893 41.1205 87.9614 42.8302C87.4336 44.54 86.6697 46.0761 85.6696 47.4386C84.6696 48.7743 83.4334 49.8563 81.9611 50.6844C80.4887 51.5126 78.822 51.9267 76.9607 51.9267C75.3218 51.9267 73.9189 51.6595 72.7521 51.1252C71.6132 50.5909 70.6687 49.8964 69.9186 49.0415C69.1686 48.1866 68.613 47.2516 68.2519 46.2364C67.9185 45.1945 67.7518 44.166 67.7518 43.1508C67.7518 42.0822 67.9046 41.0403 68.2102 40.0252C68.5435 39.01 69.0158 38.0883 69.6269 37.2602C69.8214 37.8479 70.0575 38.302 70.3353 38.6226C70.6409 38.9165 70.9465 39.1302 71.252 39.2638C71.5854 39.4241 71.9465 39.5176 72.3354 39.5443C73.3633 39.5443 74.1272 39.3172 74.6273 38.8631C75.1551 38.4089 75.419 37.8746 75.419 37.2602C75.419 36.9663 75.3634 36.6324 75.2523 36.2584C75.1412 35.8843 74.9328 35.537 74.6273 35.2165C74.3495 34.8959 73.9467 34.6287 73.4188 34.415C72.891 34.1746 72.1965 34.0544 71.3354 34.0544Z" fill="white"/>
<path d="M130.295 24.3568C129.99 25.4789 129.726 26.828 129.503 28.4041C129.309 29.9803 129.128 31.6767 128.962 33.4933C128.795 35.31 128.656 37.2067 128.545 39.1836C128.462 41.1605 128.378 43.084 128.295 44.9541C128.128 49.362 128.031 54.0105 128.003 58.8993C128.003 61.6242 127.823 64.3091 127.462 66.9539C127.128 69.5987 126.573 72.0965 125.795 74.4474C125.045 76.8251 124.059 79.0157 122.836 81.0193C121.642 83.0497 120.17 84.7861 118.419 86.2287C116.697 87.6981 114.683 88.8468 112.377 89.675C110.099 90.5031 107.516 90.9172 104.627 90.9172C101.932 90.9172 99.5988 90.6501 97.6264 90.1158C95.6541 89.5815 94.0151 88.8201 92.7094 87.8316C91.4316 86.8699 90.4732 85.7078 89.8342 84.3453C89.2231 82.9829 88.9175 81.4868 88.9175 79.8572C88.9175 78.2276 89.2092 76.7449 89.7926 75.4092C90.3759 74.1001 91.1399 72.9915 92.0844 72.0832C93.0289 71.1748 94.0984 70.4803 95.2929 69.9994C96.4874 69.4918 97.6959 69.238 98.9182 69.238C100.474 69.238 101.946 69.6654 103.335 70.5203C104.724 71.3752 105.78 72.7243 106.502 74.5676C106.335 74.4341 106.141 74.3406 105.919 74.2871C105.724 74.2604 105.516 74.2471 105.294 74.2471C104.988 74.2471 104.669 74.3139 104.335 74.4474C104.03 74.581 103.752 74.768 103.502 75.0084C103.252 75.2489 103.043 75.516 102.877 75.8099C102.738 76.1305 102.668 76.4644 102.668 76.8117C102.668 77.2124 102.752 77.5464 102.918 77.8135C103.085 78.1074 103.28 78.3345 103.502 78.4948C103.752 78.655 104.016 78.7619 104.294 78.8153C104.599 78.8955 104.877 78.9355 105.127 78.9355C105.516 78.9355 106.002 78.8554 106.585 78.6951C107.169 78.5348 107.766 78.2009 108.377 77.6933C109.016 77.1857 109.641 76.4778 110.252 75.5695C110.891 74.6611 111.447 73.4456 111.919 71.9229C112.419 70.4268 112.808 68.5968 113.086 66.4329C113.391 64.269 113.53 61.6777 113.502 58.6589C112.78 60.5289 112.016 62.0517 111.211 63.2271C110.433 64.3759 109.599 65.2708 108.71 65.912C107.849 66.5532 106.933 66.9806 105.96 67.1943C105.016 67.408 104.002 67.5149 102.918 67.5149C101.557 67.5149 100.127 67.2878 98.6265 66.8337C97.1542 66.3528 95.793 65.5246 94.5429 64.3492C93.3206 63.147 92.3066 61.5174 91.501 59.4603C90.6954 57.4033 90.2926 54.7852 90.2926 51.6061C90.2926 51.1787 90.2926 50.8848 90.2926 50.7245C90.3204 50.5375 90.3343 50.4039 90.3343 50.3238C90.3343 50.2169 90.3482 50.0967 90.3759 49.9631C90.4037 49.8296 90.4176 49.5758 90.4176 49.2018C90.4176 48.801 90.4176 48.24 90.4176 47.5187C90.4454 46.7974 90.4593 45.7822 90.4593 44.4732C90.4593 42.9505 90.4315 41.2273 90.3759 39.3039C90.3204 37.3804 90.1954 35.497 90.0009 33.6536C89.8342 31.8103 89.5842 30.1406 89.2509 28.6446C88.9175 27.1218 88.4869 25.9998 87.9591 25.2785C90.2093 25.6525 92.3205 25.9063 94.2929 26.0399C96.293 26.1734 98.1125 26.2402 99.7515 26.2402C100.835 26.2402 101.807 26.2269 102.668 26.2002C103.557 26.1467 104.321 26.0933 104.96 26.0399C105.682 25.9864 106.335 25.9196 106.919 25.8395C106.696 26.2937 106.446 27.1619 106.169 28.4442C105.919 29.7265 105.669 31.2626 105.419 33.0526C105.169 34.8425 104.96 36.806 104.794 38.9432C104.627 41.0537 104.544 43.1909 104.544 45.3548C104.544 46.9844 104.669 48.3736 104.919 49.5223C105.169 50.6711 105.502 51.6195 105.919 52.3675C106.363 53.0888 106.863 53.6231 107.419 53.9704C108.002 54.3177 108.627 54.4913 109.294 54.4913C110.349 54.4913 111.183 54.0772 111.794 53.2491C112.433 52.4209 112.975 51.379 113.419 50.1234C113.364 48.4671 113.266 46.5303 113.127 44.3129C112.989 42.0956 112.794 39.7847 112.544 37.3804C112.322 34.976 112.016 32.5583 111.627 30.1273C111.266 27.6695 110.808 25.3853 110.252 23.2749C111.113 23.5687 112.141 23.8359 113.336 24.0763C114.364 24.29 115.614 24.477 117.086 24.6373C118.558 24.7709 120.295 24.8377 122.295 24.8377C124.656 24.8377 127.323 24.6774 130.295 24.3568Z" fill="white"/>
<path d="M162.459 70.2398C161.987 70.2131 161.431 70.173 160.792 70.1196C160.237 70.0929 159.584 70.0662 158.834 70.0395C158.084 70.0127 157.223 69.9994 156.251 69.9994C154.445 69.9994 152.361 70.0795 150 70.2398C147.639 70.3734 145.083 70.6405 142.333 71.0413C142.861 70.0261 143.305 68.7571 143.666 67.2344C144.028 65.6849 144.319 64.0419 144.541 62.3055C144.791 60.5423 144.972 58.7657 145.083 56.9758C145.222 55.1859 145.319 53.5429 145.375 52.0469C145.43 50.5509 145.458 49.2819 145.458 48.24C145.486 47.1981 145.5 46.5436 145.5 46.2765C145.444 42.8035 145.319 39.5577 145.125 36.5389C145.041 35.2565 144.93 33.9609 144.791 32.6518C144.68 31.3428 144.541 30.1139 144.375 28.9652C144.208 27.7897 144.014 26.7478 143.791 25.8395C143.597 24.9045 143.361 24.1698 143.083 23.6355C145.333 24.0095 147.417 24.2633 149.333 24.3969C151.25 24.5305 152.986 24.5973 154.542 24.5973C155.542 24.5973 156.431 24.5839 157.209 24.5572C158.015 24.5038 158.695 24.4503 159.251 24.3969C159.917 24.3435 160.501 24.2767 161.001 24.1965C160.501 26.6009 160.084 29.4995 159.751 32.8923C159.445 36.2851 159.292 39.9183 159.292 43.792C159.292 46.0093 159.348 48.2534 159.459 50.5242C159.57 52.7949 159.751 55.0657 160.001 57.3365C160.251 59.5805 160.57 61.7979 160.959 63.9885C161.376 66.1524 161.876 68.2362 162.459 70.2398ZM143.333 12.9362C143.333 11.7073 143.569 10.5585 144.041 9.48993C144.541 8.39462 145.208 7.44623 146.042 6.64478C146.903 5.81662 147.903 5.17546 149.042 4.7213C150.181 4.24043 151.389 4 152.667 4C153.945 4 155.139 4.24043 156.251 4.7213C157.39 5.17546 158.376 5.81662 159.209 6.64478C160.07 7.44623 160.737 8.39462 161.209 9.48993C161.709 10.5585 161.959 11.7073 161.959 12.9362C161.959 14.1651 161.709 15.3272 161.209 16.4225C160.737 17.5178 160.07 18.4795 159.209 19.3077C158.376 20.1091 157.39 20.7503 156.251 21.2312C155.139 21.6853 153.945 21.9124 152.667 21.9124C151.389 21.9124 150.181 21.6853 149.042 21.2312C147.903 20.7503 146.903 20.1091 146.042 19.3077C145.208 18.4795 144.541 17.5178 144.041 16.4225C143.569 15.3272 143.333 14.1651 143.333 12.9362Z" fill="white"/>
<path d="M197.084 21.7521C196.862 22.9543 196.695 24.1297 196.584 25.2785C196.501 26.4272 196.459 27.6027 196.459 28.8049C196.459 29.9536 196.501 31.1157 196.584 32.2912C196.695 33.4399 196.862 34.602 197.084 35.7775C195.751 35.1096 194.237 34.6154 192.542 34.2948C190.875 33.9742 189.167 33.7204 187.417 33.5334V36.9797C187.417 39.9984 187.472 43.0573 187.584 46.1563C187.695 49.2285 187.875 52.2206 188.125 55.1325C188.375 58.0177 188.695 60.756 189.084 63.3473C189.5 65.9387 190 68.2362 190.584 70.2398C190.111 70.2131 189.556 70.173 188.917 70.1196C188.361 70.0929 187.709 70.0662 186.959 70.0395C186.208 70.0127 185.347 69.9994 184.375 69.9994C182.569 69.9994 180.486 70.0795 178.125 70.2398C175.763 70.3734 173.208 70.6405 170.457 71.0413C171.402 65.8318 172.069 60.4221 172.458 54.8119C172.874 49.175 173.083 43.6718 173.083 38.302V33.5334C171.194 33.667 169.318 33.8807 167.457 34.1746C165.624 34.4417 163.888 34.7757 162.249 35.1764C162.36 34.8825 162.457 34.4952 162.54 34.0143C162.624 33.5334 162.679 33.0392 162.707 32.5316C162.762 32.024 162.79 31.5298 162.79 31.0489C162.818 30.5681 162.832 30.1673 162.832 29.8468C162.832 28.4843 162.776 27.1352 162.665 25.7994C162.554 24.4637 162.415 23.1146 162.249 21.7521C163.582 22.2864 165.165 22.7272 166.999 23.0745C168.832 23.3951 170.694 23.6355 172.583 23.7958C172.416 21.4716 172.221 19.321 171.999 17.3441C171.777 15.3672 171.513 13.5773 171.207 11.9744C173.458 12.3484 175.541 12.6022 177.458 12.7358C179.375 12.8694 181.111 12.9362 182.667 12.9362C183.667 12.9362 184.556 12.9228 185.333 12.8961C186.139 12.8427 186.82 12.7892 187.375 12.7358C188.042 12.6824 188.625 12.6156 189.125 12.5354C188.82 13.8178 188.556 15.4207 188.334 17.3441C188.139 19.2409 187.945 21.3647 187.75 23.7157C189.584 23.5287 191.306 23.2749 192.917 22.9543C194.556 22.6337 195.945 22.233 197.084 21.7521Z" fill="white"/>
<path d="M247.874 46.9978C247.874 48.5472 247.749 50.257 247.499 52.1271C247.249 53.9704 246.833 55.8404 246.249 57.7372C245.666 59.6072 244.874 61.4372 243.874 63.2271C242.874 64.9903 241.624 66.5532 240.124 67.9156C238.652 69.2781 236.888 70.3734 234.832 71.2016C232.776 72.0297 230.387 72.4438 227.665 72.4438C224.942 72.4438 222.553 72.0564 220.498 71.2817C218.47 70.507 216.72 69.4784 215.247 68.1961C213.803 66.8871 212.608 65.391 211.664 63.708C210.719 61.9982 209.969 60.2083 209.414 58.3383C208.858 56.4682 208.469 54.5848 208.247 52.6881C208.052 50.7646 207.955 48.948 207.955 47.2382C207.955 44.2194 208.372 41.2674 209.205 38.3822C210.039 35.4703 211.303 32.8789 212.997 30.6081C214.72 28.3374 216.859 26.5074 219.414 25.1182C221.998 23.729 225.026 23.0344 228.498 23.0344C230.832 23.0344 232.929 23.3817 234.79 24.0763C236.652 24.7442 238.304 25.6659 239.749 26.8413C241.193 28.0168 242.416 29.3926 243.416 30.9688C244.444 32.545 245.291 34.2147 245.958 35.9778C246.624 37.741 247.111 39.571 247.416 41.4678C247.722 43.3645 247.874 45.2079 247.874 46.9978ZM233.374 48.3202C233.374 47.7057 233.346 46.9443 233.29 46.036C233.262 45.101 233.179 44.1259 233.04 43.1107C232.901 42.0956 232.707 41.0804 232.457 40.0652C232.235 39.0501 231.929 38.1418 231.54 37.3403C231.151 36.5389 230.665 35.8843 230.082 35.3768C229.526 34.8692 228.859 34.6154 228.082 34.6154C227.331 34.6154 226.679 34.8558 226.123 35.3367C225.567 35.8176 225.081 36.4454 224.665 37.2201C224.276 37.9948 223.942 38.8764 223.665 39.8649C223.415 40.8266 223.206 41.8017 223.04 42.7902C222.901 43.7519 222.789 44.6869 222.706 45.5952C222.651 46.4768 222.623 47.2249 222.623 47.8393C222.623 48.7209 222.692 49.7895 222.831 51.0451C222.97 52.3007 223.234 53.5029 223.623 54.6516C224.012 55.8004 224.54 56.7888 225.206 57.617C225.901 58.4184 226.804 58.8192 227.915 58.8192C228.97 58.8192 229.846 58.4451 230.54 57.6971C231.262 56.9491 231.832 56.0408 232.248 54.9722C232.665 53.8769 232.957 52.7281 233.124 51.526C233.29 50.3238 233.374 49.2552 233.374 48.3202Z" fill="white"/>
<path d="M292.5 71.2016C291.639 71.068 290.694 70.9745 289.667 70.9211C288.639 70.8943 287.569 70.881 286.458 70.881C285.125 70.881 283.763 70.9077 282.374 70.9611C281.013 71.0413 279.68 71.1348 278.374 71.2416C277.068 71.3485 275.832 71.4687 274.665 71.6023C273.499 71.7359 272.485 71.8561 271.624 71.9629C272.818 68.0893 273.735 63.9484 274.374 59.5405C275.041 55.1325 275.374 50.2436 275.374 44.8739C275.374 44.4732 275.36 43.9389 275.332 43.271C275.332 42.6032 275.304 41.8819 275.249 41.1071C275.193 40.3324 275.096 39.5577 274.957 38.7829C274.846 37.9815 274.666 37.2602 274.415 36.619C274.193 35.9778 273.902 35.4569 273.54 35.0562C273.179 34.6554 272.735 34.4551 272.207 34.4551C271.429 34.4551 270.665 34.7222 269.915 35.2565C269.193 35.7908 268.54 36.4988 267.957 37.3804C267.401 38.262 266.943 39.2771 266.582 40.4259C266.248 41.5746 266.082 42.7635 266.082 43.9923C266.082 46.2097 266.137 48.4671 266.248 50.7646C266.359 53.0354 266.54 55.2928 266.79 57.5368C267.04 59.7809 267.359 61.9849 267.748 64.1488C268.137 66.286 268.623 68.3163 269.207 70.2398C268.735 70.2131 268.179 70.173 267.54 70.1196C266.984 70.0929 266.332 70.0662 265.582 70.0395C264.832 70.0127 263.97 69.9994 262.998 69.9994C261.192 69.9994 259.109 70.0795 256.748 70.2398C254.386 70.3734 251.831 70.6405 249.081 71.0413C249.414 69.5452 249.706 67.7152 249.956 65.5513C250.206 63.3874 250.414 61.0365 250.581 58.4986C250.747 55.9607 250.872 53.3159 250.956 50.5642C251.067 47.7859 251.122 45.0476 251.122 42.3494C251.122 40.3457 251.095 38.3822 251.039 36.4587C250.983 34.5352 250.9 32.7186 250.789 31.0089C250.706 29.2991 250.581 27.7229 250.414 26.2803C250.247 24.8377 250.053 23.5954 249.831 22.5536C252.081 22.9276 254.164 23.1947 256.081 23.355C257.998 23.4886 259.734 23.5554 261.29 23.5554C262.29 23.5554 263.179 23.542 263.956 23.5153C264.762 23.4619 265.443 23.4084 265.998 23.355C266.665 23.2749 267.248 23.1947 267.748 23.1146C267.582 23.9427 267.415 24.8243 267.248 25.7594C267.109 26.6944 266.971 27.7096 266.832 28.8049C267.748 27.6828 268.721 26.7077 269.749 25.8796C270.776 25.0247 271.804 24.3167 272.832 23.7557C273.888 23.1947 274.929 22.7806 275.957 22.5135C276.985 22.2196 277.957 22.0727 278.874 22.0727C280.874 22.0727 282.597 22.4734 284.041 23.2749C285.513 24.0496 286.722 25.2785 287.666 26.9615C288.639 28.6446 289.361 30.7951 289.833 33.4132C290.305 36.0313 290.542 39.1703 290.542 42.8302C290.542 45.3414 290.542 47.8927 290.542 50.4841C290.569 53.0754 290.639 55.6134 290.75 58.0978C290.861 60.5823 291.055 62.9466 291.333 65.1907C291.611 67.408 292 69.4117 292.5 71.2016Z" fill="white"/>
<path d="M37.1272 70.2398C36.4882 70.1864 35.7521 70.133 34.9187 70.0795C34.1964 70.0261 33.3491 69.986 32.3769 69.9593C31.4046 69.9326 30.3073 69.9192 29.085 69.9192C27.0293 69.9192 24.7097 69.9994 22.1262 70.1597C19.5705 70.2932 16.862 70.5604 14.0007 70.9611C14.973 67.0073 15.7091 63.2004 16.2092 59.5405C16.7092 55.8805 17.0842 52.6213 17.3342 49.7628C17.612 46.4234 17.7787 43.2844 17.8343 40.3457C17.8343 39.0901 17.8065 37.7143 17.7509 36.2183C17.6954 34.936 17.6259 33.4533 17.5426 31.7702C17.4592 30.0605 17.3481 28.2171 17.2092 26.2402C15.9036 27.4424 14.5979 28.7381 13.2923 30.1273C12.0144 31.4897 10.7782 32.919 9.58373 34.415C8.3892 35.8843 7.26413 37.3804 6.20851 38.9031C5.18066 40.4259 4.27783 41.9219 3.5 43.3913L4.50006 12.7759C7.11134 13.0697 9.86152 13.2968 12.7506 13.4571C15.6675 13.6174 18.6399 13.6975 21.6678 13.6975C26.0015 13.6975 30.2934 13.5506 34.5437 13.2567C38.7939 12.9629 42.697 12.5354 46.2528 11.9744L47.7945 42.9104C45.7944 39.2504 43.572 35.8176 41.1274 32.6118C38.7106 29.3792 36.1271 26.681 33.3769 24.5171C33.1547 26.3337 32.988 28.2439 32.8769 30.2475C32.7936 32.2244 32.7519 34.2547 32.7519 36.3385C32.7519 39.0367 32.8352 41.8151 33.0019 44.6736C33.1964 47.5054 33.4603 50.3639 33.7936 53.2491C34.1548 56.1343 34.6131 59.0062 35.1687 61.8647C35.7243 64.7232 36.3771 67.5149 37.1272 70.2398Z" stroke="url(#paint0_linear_2575_24018)" stroke-width="6.15026" mask="url(#path-2-outside-1_2575_24018)"/>
<path d="M71.3354 34.0544C70.4742 34.0544 69.6964 34.2948 69.0019 34.7757C68.3074 35.2298 67.6824 35.8843 67.1268 36.7392C66.599 37.5674 66.1267 38.5692 65.71 39.7447C65.3211 40.9201 65.0016 42.2158 64.7516 43.6317C64.7516 45.9025 64.8072 48.1999 64.9183 50.5242C65.0294 52.8484 65.21 55.1458 65.46 57.4166C65.71 59.6874 66.0295 61.9047 66.4184 64.0686C66.8351 66.2326 67.3351 68.2896 67.9185 70.2398C67.474 70.2131 66.9601 70.173 66.3767 70.1196C65.8767 70.0929 65.2655 70.0662 64.5433 70.0395C63.8488 70.0127 63.0432 69.9994 62.1265 69.9994C60.4041 69.9994 58.404 70.0795 56.1261 70.2398C53.8759 70.3734 51.3758 70.6405 48.6256 71.0413C48.9589 69.5452 49.2506 67.7152 49.5006 65.5513C49.7507 63.3874 49.959 61.0365 50.1257 58.4986C50.2924 55.9607 50.4174 53.3159 50.5007 50.5642C50.6118 47.7859 50.6674 45.0476 50.6674 42.3494C50.6674 40.3457 50.6396 38.3822 50.584 36.4587C50.5285 34.5352 50.4451 32.7186 50.334 31.0089C50.2507 29.2991 50.1257 27.7229 49.959 26.2803C49.7923 24.8377 49.5979 23.5954 49.3756 22.5536C51.6258 22.9276 53.6676 23.1947 55.501 23.355C57.3623 23.4886 59.029 23.5554 60.5014 23.5554C61.4459 23.5554 62.2792 23.542 63.0015 23.5153C63.7238 23.4619 64.3488 23.4084 64.8766 23.355C65.46 23.2749 65.9878 23.1947 66.4601 23.1146C66.1267 24.4503 65.8767 25.933 65.71 27.5626C67.1546 25.8796 68.7241 24.6373 70.4187 23.8359C72.141 23.0344 73.7522 22.6337 75.2523 22.6337C77.7525 22.6337 79.8637 23.0745 81.586 23.9561C83.3084 24.811 84.6974 25.9464 85.753 27.3623C86.8086 28.7514 87.5725 30.341 88.0448 32.1309C88.5171 33.9208 88.7532 35.7374 88.7532 37.5807C88.7532 39.3706 88.4893 41.1205 87.9614 42.8302C87.4336 44.54 86.6697 46.0761 85.6696 47.4386C84.6696 48.7743 83.4334 49.8563 81.9611 50.6844C80.4887 51.5126 78.822 51.9267 76.9607 51.9267C75.3218 51.9267 73.9189 51.6595 72.7521 51.1252C71.6132 50.5909 70.6687 49.8964 69.9186 49.0415C69.1686 48.1866 68.613 47.2516 68.2519 46.2364C67.9185 45.1945 67.7518 44.166 67.7518 43.1508C67.7518 42.0822 67.9046 41.0403 68.2102 40.0252C68.5435 39.01 69.0158 38.0883 69.6269 37.2602C69.8214 37.8479 70.0575 38.302 70.3353 38.6226C70.6409 38.9165 70.9465 39.1302 71.252 39.2638C71.5854 39.4241 71.9465 39.5176 72.3354 39.5443C73.3633 39.5443 74.1272 39.3172 74.6273 38.8631C75.1551 38.4089 75.419 37.8746 75.419 37.2602C75.419 36.9663 75.3634 36.6324 75.2523 36.2584C75.1412 35.8843 74.9328 35.537 74.6273 35.2165C74.3495 34.8959 73.9467 34.6287 73.4188 34.415C72.891 34.1746 72.1965 34.0544 71.3354 34.0544Z" stroke="url(#paint1_linear_2575_24018)" stroke-width="6.15026" mask="url(#path-2-outside-1_2575_24018)"/>
<path d="M130.295 24.3568C129.99 25.4789 129.726 26.828 129.503 28.4041C129.309 29.9803 129.128 31.6767 128.962 33.4933C128.795 35.31 128.656 37.2067 128.545 39.1836C128.462 41.1605 128.378 43.084 128.295 44.9541C128.128 49.362 128.031 54.0105 128.003 58.8993C128.003 61.6242 127.823 64.3091 127.462 66.9539C127.128 69.5987 126.573 72.0965 125.795 74.4474C125.045 76.8251 124.059 79.0157 122.836 81.0193C121.642 83.0497 120.17 84.7861 118.419 86.2287C116.697 87.6981 114.683 88.8468 112.377 89.675C110.099 90.5031 107.516 90.9172 104.627 90.9172C101.932 90.9172 99.5988 90.6501 97.6264 90.1158C95.6541 89.5815 94.0151 88.8201 92.7094 87.8316C91.4316 86.8699 90.4732 85.7078 89.8342 84.3453C89.2231 82.9829 88.9175 81.4868 88.9175 79.8572C88.9175 78.2276 89.2092 76.7449 89.7926 75.4092C90.3759 74.1001 91.1399 72.9915 92.0844 72.0832C93.0289 71.1748 94.0984 70.4803 95.2929 69.9994C96.4874 69.4918 97.6959 69.238 98.9182 69.238C100.474 69.238 101.946 69.6654 103.335 70.5203C104.724 71.3752 105.78 72.7243 106.502 74.5676C106.335 74.4341 106.141 74.3406 105.919 74.2871C105.724 74.2604 105.516 74.2471 105.294 74.2471C104.988 74.2471 104.669 74.3139 104.335 74.4474C104.03 74.581 103.752 74.768 103.502 75.0084C103.252 75.2489 103.043 75.516 102.877 75.8099C102.738 76.1305 102.668 76.4644 102.668 76.8117C102.668 77.2124 102.752 77.5464 102.918 77.8135C103.085 78.1074 103.28 78.3345 103.502 78.4948C103.752 78.655 104.016 78.7619 104.294 78.8153C104.599 78.8955 104.877 78.9355 105.127 78.9355C105.516 78.9355 106.002 78.8554 106.585 78.6951C107.169 78.5348 107.766 78.2009 108.377 77.6933C109.016 77.1857 109.641 76.4778 110.252 75.5695C110.891 74.6611 111.447 73.4456 111.919 71.9229C112.419 70.4268 112.808 68.5968 113.086 66.4329C113.391 64.269 113.53 61.6777 113.502 58.6589C112.78 60.5289 112.016 62.0517 111.211 63.2271C110.433 64.3759 109.599 65.2708 108.71 65.912C107.849 66.5532 106.933 66.9806 105.96 67.1943C105.016 67.408 104.002 67.5149 102.918 67.5149C101.557 67.5149 100.127 67.2878 98.6265 66.8337C97.1542 66.3528 95.793 65.5246 94.5429 64.3492C93.3206 63.147 92.3066 61.5174 91.501 59.4603C90.6954 57.4033 90.2926 54.7852 90.2926 51.6061C90.2926 51.1787 90.2926 50.8848 90.2926 50.7245C90.3204 50.5375 90.3343 50.4039 90.3343 50.3238C90.3343 50.2169 90.3482 50.0967 90.3759 49.9631C90.4037 49.8296 90.4176 49.5758 90.4176 49.2018C90.4176 48.801 90.4176 48.24 90.4176 47.5187C90.4454 46.7974 90.4593 45.7822 90.4593 44.4732C90.4593 42.9505 90.4315 41.2273 90.3759 39.3039C90.3204 37.3804 90.1954 35.497 90.0009 33.6536C89.8342 31.8103 89.5842 30.1406 89.2509 28.6446C88.9175 27.1218 88.4869 25.9998 87.9591 25.2785C90.2093 25.6525 92.3205 25.9063 94.2929 26.0399C96.293 26.1734 98.1125 26.2402 99.7515 26.2402C100.835 26.2402 101.807 26.2269 102.668 26.2002C103.557 26.1467 104.321 26.0933 104.96 26.0399C105.682 25.9864 106.335 25.9196 106.919 25.8395C106.696 26.2937 106.446 27.1619 106.169 28.4442C105.919 29.7265 105.669 31.2626 105.419 33.0526C105.169 34.8425 104.96 36.806 104.794 38.9432C104.627 41.0537 104.544 43.1909 104.544 45.3548C104.544 46.9844 104.669 48.3736 104.919 49.5223C105.169 50.6711 105.502 51.6195 105.919 52.3675C106.363 53.0888 106.863 53.6231 107.419 53.9704C108.002 54.3177 108.627 54.4913 109.294 54.4913C110.349 54.4913 111.183 54.0772 111.794 53.2491C112.433 52.4209 112.975 51.379 113.419 50.1234C113.364 48.4671 113.266 46.5303 113.127 44.3129C112.989 42.0956 112.794 39.7847 112.544 37.3804C112.322 34.976 112.016 32.5583 111.627 30.1273C111.266 27.6695 110.808 25.3853 110.252 23.2749C111.113 23.5687 112.141 23.8359 113.336 24.0763C114.364 24.29 115.614 24.477 117.086 24.6373C118.558 24.7709 120.295 24.8377 122.295 24.8377C124.656 24.8377 127.323 24.6774 130.295 24.3568Z" stroke="url(#paint2_linear_2575_24018)" stroke-width="6.15026" mask="url(#path-2-outside-1_2575_24018)"/>
<path d="M162.459 70.2398C161.987 70.2131 161.431 70.173 160.792 70.1196C160.237 70.0929 159.584 70.0662 158.834 70.0395C158.084 70.0127 157.223 69.9994 156.251 69.9994C154.445 69.9994 152.361 70.0795 150 70.2398C147.639 70.3734 145.083 70.6405 142.333 71.0413C142.861 70.0261 143.305 68.7571 143.666 67.2344C144.028 65.6849 144.319 64.0419 144.541 62.3055C144.791 60.5423 144.972 58.7657 145.083 56.9758C145.222 55.1859 145.319 53.5429 145.375 52.0469C145.43 50.5509 145.458 49.2819 145.458 48.24C145.486 47.1981 145.5 46.5436 145.5 46.2765C145.444 42.8035 145.319 39.5577 145.125 36.5389C145.041 35.2565 144.93 33.9609 144.791 32.6518C144.68 31.3428 144.541 30.1139 144.375 28.9652C144.208 27.7897 144.014 26.7478 143.791 25.8395C143.597 24.9045 143.361 24.1698 143.083 23.6355C145.333 24.0095 147.417 24.2633 149.333 24.3969C151.25 24.5305 152.986 24.5973 154.542 24.5973C155.542 24.5973 156.431 24.5839 157.209 24.5572C158.015 24.5038 158.695 24.4503 159.251 24.3969C159.917 24.3435 160.501 24.2767 161.001 24.1965C160.501 26.6009 160.084 29.4995 159.751 32.8923C159.445 36.2851 159.292 39.9183 159.292 43.792C159.292 46.0093 159.348 48.2534 159.459 50.5242C159.57 52.7949 159.751 55.0657 160.001 57.3365C160.251 59.5805 160.57 61.7979 160.959 63.9885C161.376 66.1524 161.876 68.2362 162.459 70.2398ZM143.333 12.9362C143.333 11.7073 143.569 10.5585 144.041 9.48993C144.541 8.39462 145.208 7.44623 146.042 6.64478C146.903 5.81662 147.903 5.17546 149.042 4.7213C150.181 4.24043 151.389 4 152.667 4C153.945 4 155.139 4.24043 156.251 4.7213C157.39 5.17546 158.376 5.81662 159.209 6.64478C160.07 7.44623 160.737 8.39462 161.209 9.48993C161.709 10.5585 161.959 11.7073 161.959 12.9362C161.959 14.1651 161.709 15.3272 161.209 16.4225C160.737 17.5178 160.07 18.4795 159.209 19.3077C158.376 20.1091 157.39 20.7503 156.251 21.2312C155.139 21.6853 153.945 21.9124 152.667 21.9124C151.389 21.9124 150.181 21.6853 149.042 21.2312C147.903 20.7503 146.903 20.1091 146.042 19.3077C145.208 18.4795 144.541 17.5178 144.041 16.4225C143.569 15.3272 143.333 14.1651 143.333 12.9362Z" stroke="url(#paint3_linear_2575_24018)" stroke-width="6.15026" mask="url(#path-2-outside-1_2575_24018)"/>
<path d="M197.084 21.7521C196.862 22.9543 196.695 24.1297 196.584 25.2785C196.501 26.4272 196.459 27.6027 196.459 28.8049C196.459 29.9536 196.501 31.1157 196.584 32.2912C196.695 33.4399 196.862 34.602 197.084 35.7775C195.751 35.1096 194.237 34.6154 192.542 34.2948C190.875 33.9742 189.167 33.7204 187.417 33.5334V36.9797C187.417 39.9984 187.472 43.0573 187.584 46.1563C187.695 49.2285 187.875 52.2206 188.125 55.1325C188.375 58.0177 188.695 60.756 189.084 63.3473C189.5 65.9387 190 68.2362 190.584 70.2398C190.111 70.2131 189.556 70.173 188.917 70.1196C188.361 70.0929 187.709 70.0662 186.959 70.0395C186.208 70.0127 185.347 69.9994 184.375 69.9994C182.569 69.9994 180.486 70.0795 178.125 70.2398C175.763 70.3734 173.208 70.6405 170.457 71.0413C171.402 65.8318 172.069 60.4221 172.458 54.8119C172.874 49.175 173.083 43.6718 173.083 38.302V33.5334C171.194 33.667 169.318 33.8807 167.457 34.1746C165.624 34.4417 163.888 34.7757 162.249 35.1764C162.36 34.8825 162.457 34.4952 162.54 34.0143C162.624 33.5334 162.679 33.0392 162.707 32.5316C162.762 32.024 162.79 31.5298 162.79 31.0489C162.818 30.5681 162.832 30.1673 162.832 29.8468C162.832 28.4843 162.776 27.1352 162.665 25.7994C162.554 24.4637 162.415 23.1146 162.249 21.7521C163.582 22.2864 165.165 22.7272 166.999 23.0745C168.832 23.3951 170.694 23.6355 172.583 23.7958C172.416 21.4716 172.221 19.321 171.999 17.3441C171.777 15.3672 171.513 13.5773 171.207 11.9744C173.458 12.3484 175.541 12.6022 177.458 12.7358C179.375 12.8694 181.111 12.9362 182.667 12.9362C183.667 12.9362 184.556 12.9228 185.333 12.8961C186.139 12.8427 186.82 12.7892 187.375 12.7358C188.042 12.6824 188.625 12.6156 189.125 12.5354C188.82 13.8178 188.556 15.4207 188.334 17.3441C188.139 19.2409 187.945 21.3647 187.75 23.7157C189.584 23.5287 191.306 23.2749 192.917 22.9543C194.556 22.6337 195.945 22.233 197.084 21.7521Z" stroke="url(#paint4_linear_2575_24018)" stroke-width="6.15026" mask="url(#path-2-outside-1_2575_24018)"/>
<path d="M247.874 46.9978C247.874 48.5472 247.749 50.257 247.499 52.1271C247.249 53.9704 246.833 55.8404 246.249 57.7372C245.666 59.6072 244.874 61.4372 243.874 63.2271C242.874 64.9903 241.624 66.5532 240.124 67.9156C238.652 69.2781 236.888 70.3734 234.832 71.2016C232.776 72.0297 230.387 72.4438 227.665 72.4438C224.942 72.4438 222.553 72.0564 220.498 71.2817C218.47 70.507 216.72 69.4784 215.247 68.1961C213.803 66.8871 212.608 65.391 211.664 63.708C210.719 61.9982 209.969 60.2083 209.414 58.3383C208.858 56.4682 208.469 54.5848 208.247 52.6881C208.052 50.7646 207.955 48.948 207.955 47.2382C207.955 44.2194 208.372 41.2674 209.205 38.3822C210.039 35.4703 211.303 32.8789 212.997 30.6081C214.72 28.3374 216.859 26.5074 219.414 25.1182C221.998 23.729 225.026 23.0344 228.498 23.0344C230.832 23.0344 232.929 23.3817 234.79 24.0763C236.652 24.7442 238.304 25.6659 239.749 26.8413C241.193 28.0168 242.416 29.3926 243.416 30.9688C244.444 32.545 245.291 34.2147 245.958 35.9778C246.624 37.741 247.111 39.571 247.416 41.4678C247.722 43.3645 247.874 45.2079 247.874 46.9978ZM233.374 48.3202C233.374 47.7057 233.346 46.9443 233.29 46.036C233.262 45.101 233.179 44.1259 233.04 43.1107C232.901 42.0956 232.707 41.0804 232.457 40.0652C232.235 39.0501 231.929 38.1418 231.54 37.3403C231.151 36.5389 230.665 35.8843 230.082 35.3768C229.526 34.8692 228.859 34.6154 228.082 34.6154C227.331 34.6154 226.679 34.8558 226.123 35.3367C225.567 35.8176 225.081 36.4454 224.665 37.2201C224.276 37.9948 223.942 38.8764 223.665 39.8649C223.415 40.8266 223.206 41.8017 223.04 42.7902C222.901 43.7519 222.789 44.6869 222.706 45.5952C222.651 46.4768 222.623 47.2249 222.623 47.8393C222.623 48.7209 222.692 49.7895 222.831 51.0451C222.97 52.3007 223.234 53.5029 223.623 54.6516C224.012 55.8004 224.54 56.7888 225.206 57.617C225.901 58.4184 226.804 58.8192 227.915 58.8192C228.97 58.8192 229.846 58.4451 230.54 57.6971C231.262 56.9491 231.832 56.0408 232.248 54.9722C232.665 53.8769 232.957 52.7281 233.124 51.526C233.29 50.3238 233.374 49.2552 233.374 48.3202Z" stroke="url(#paint5_linear_2575_24018)" stroke-width="6.15026" mask="url(#path-2-outside-1_2575_24018)"/>
<path d="M292.5 71.2016C291.639 71.068 290.694 70.9745 289.667 70.9211C288.639 70.8943 287.569 70.881 286.458 70.881C285.125 70.881 283.763 70.9077 282.374 70.9611C281.013 71.0413 279.68 71.1348 278.374 71.2416C277.068 71.3485 275.832 71.4687 274.665 71.6023C273.499 71.7359 272.485 71.8561 271.624 71.9629C272.818 68.0893 273.735 63.9484 274.374 59.5405C275.041 55.1325 275.374 50.2436 275.374 44.8739C275.374 44.4732 275.36 43.9389 275.332 43.271C275.332 42.6032 275.304 41.8819 275.249 41.1071C275.193 40.3324 275.096 39.5577 274.957 38.7829C274.846 37.9815 274.666 37.2602 274.415 36.619C274.193 35.9778 273.902 35.4569 273.54 35.0562C273.179 34.6554 272.735 34.4551 272.207 34.4551C271.429 34.4551 270.665 34.7222 269.915 35.2565C269.193 35.7908 268.54 36.4988 267.957 37.3804C267.401 38.262 266.943 39.2771 266.582 40.4259C266.248 41.5746 266.082 42.7635 266.082 43.9923C266.082 46.2097 266.137 48.4671 266.248 50.7646C266.359 53.0354 266.54 55.2928 266.79 57.5368C267.04 59.7809 267.359 61.9849 267.748 64.1488C268.137 66.286 268.623 68.3163 269.207 70.2398C268.735 70.2131 268.179 70.173 267.54 70.1196C266.984 70.0929 266.332 70.0662 265.582 70.0395C264.832 70.0127 263.97 69.9994 262.998 69.9994C261.192 69.9994 259.109 70.0795 256.748 70.2398C254.386 70.3734 251.831 70.6405 249.081 71.0413C249.414 69.5452 249.706 67.7152 249.956 65.5513C250.206 63.3874 250.414 61.0365 250.581 58.4986C250.747 55.9607 250.872 53.3159 250.956 50.5642C251.067 47.7859 251.122 45.0476 251.122 42.3494C251.122 40.3457 251.095 38.3822 251.039 36.4587C250.983 34.5352 250.9 32.7186 250.789 31.0089C250.706 29.2991 250.581 27.7229 250.414 26.2803C250.247 24.8377 250.053 23.5954 249.831 22.5536C252.081 22.9276 254.164 23.1947 256.081 23.355C257.998 23.4886 259.734 23.5554 261.29 23.5554C262.29 23.5554 263.179 23.542 263.956 23.5153C264.762 23.4619 265.443 23.4084 265.998 23.355C266.665 23.2749 267.248 23.1947 267.748 23.1146C267.582 23.9427 267.415 24.8243 267.248 25.7594C267.109 26.6944 266.971 27.7096 266.832 28.8049C267.748 27.6828 268.721 26.7077 269.749 25.8796C270.776 25.0247 271.804 24.3167 272.832 23.7557C273.888 23.1947 274.929 22.7806 275.957 22.5135C276.985 22.2196 277.957 22.0727 278.874 22.0727C280.874 22.0727 282.597 22.4734 284.041 23.2749C285.513 24.0496 286.722 25.2785 287.666 26.9615C288.639 28.6446 289.361 30.7951 289.833 33.4132C290.305 36.0313 290.542 39.1703 290.542 42.8302C290.542 45.3414 290.542 47.8927 290.542 50.4841C290.569 53.0754 290.639 55.6134 290.75 58.0978C290.861 60.5823 291.055 62.9466 291.333 65.1907C291.611 67.408 292 69.4117 292.5 71.2016Z" stroke="url(#paint6_linear_2575_24018)" stroke-width="6.15026" mask="url(#path-2-outside-1_2575_24018)"/>
<defs>
<linearGradient id="paint0_linear_2575_24018" x1="148" y1="4" x2="148" y2="90.9172" gradientUnits="userSpaceOnUse">
<stop stop-color="#9747FF"/>
<stop offset="1" stop-color="#110A01"/>
</linearGradient>
<linearGradient id="paint1_linear_2575_24018" x1="148" y1="4" x2="148" y2="90.9172" gradientUnits="userSpaceOnUse">
<stop stop-color="#9747FF"/>
<stop offset="1" stop-color="#110A01"/>
</linearGradient>
<linearGradient id="paint2_linear_2575_24018" x1="148" y1="4" x2="148" y2="90.9172" gradientUnits="userSpaceOnUse">
<stop stop-color="#9747FF"/>
<stop offset="1" stop-color="#110A01"/>
</linearGradient>
<linearGradient id="paint3_linear_2575_24018" x1="148" y1="4" x2="148" y2="90.9172" gradientUnits="userSpaceOnUse">
<stop stop-color="#9747FF"/>
<stop offset="1" stop-color="#110A01"/>
</linearGradient>
<linearGradient id="paint4_linear_2575_24018" x1="148" y1="4" x2="148" y2="90.9172" gradientUnits="userSpaceOnUse">
<stop stop-color="#9747FF"/>
<stop offset="1" stop-color="#110A01"/>
</linearGradient>
<linearGradient id="paint5_linear_2575_24018" x1="148" y1="4" x2="148" y2="90.9172" gradientUnits="userSpaceOnUse">
<stop stop-color="#9747FF"/>
<stop offset="1" stop-color="#110A01"/>
</linearGradient>
<linearGradient id="paint6_linear_2575_24018" x1="148" y1="4" x2="148" y2="90.9172" gradientUnits="userSpaceOnUse">
<stop stop-color="#9747FF"/>
<stop offset="1" stop-color="#110A01"/>
</linearGradient>
</defs>
</svg>
